{"title":"Insidious 2011 720p RC BDRiP X264 UnKnOwN","uid":6483784,"size":2280189771,"categoryP":"video","categoryS":"hd___movies","magnet":"?xt=urn:btih:10a3e75cb0c59124c6b2eec5db161dd17c335bc1&amp;dn=Insidious+2011+720p+RC+BDRiP+X264+UnKnOwN&amp;tr=udp%3A%2F%2Ftracker.openbittorrent.com%3A80&amp;tr=udp%3A%2F%2Fopen.demonii.com%3A1337&amp;tr=udp%3A%2F%2Ftracker.coppersurfer.tk%3A6969&amp;tr=udp%3A%2F%2Fexodus.desync.com%3A6969","seeders":0,"leechers":1,"uploader":"TPBAgri","files":-1,"time":1308634538,"description":"Encoded By......:UnKnOwN                                                     Release Date....:2011\nRuntime ........:1:40                                                        Source..........:Whats A Source?\nIMDb URL .......:http://www.imdb.com/title/tt1591095/                        Type............:Single MP4\nLanguage........:English                                               \nFile Size.......:2.12gb                                                      Genre  .........:Thriller/Horror\n\n\nMovie name                       : INSIDIOUS\nPerformer                        : Boo\nWriting application              : TMPGEnc Video Mastering  6 Beta  Version. \n\n\nVideo\nID                               : 2\nFormat                           : AVC\nFormat/Info                      : Advanced Video Codec\nFormat profile                   : &lt;a class=&quot;__cf_email__&quot; href=&quot;/cdn-cgi/l/email-protection&quot; data-cfemail=&quot;d199b8b6b9919de2ffe0&quot;&gt;[email&amp;#160;protected]&lt;/a&gt;&lt;script cf-hash='f9e31' type=&quot;text/javascript&quot;&gt;\n/* &lt;![CDATA[ */!function(){try{var t=&quot;currentScript&quot;in document?document.currentScript:function(){for(var t=document.getElementsByTagName(&quot;script&quot;),e=t.length;e--;)if(t[e].getAttribute(&quot;cf-hash&quot;))return t[e]}();if(t&amp;&amp;t.previousSibling){var e,r,n,i,c=t.previousSibling,a=c.getAttribute(&quot;data-cfemail&quot;);if(a){for(e=&quot;&quot;,r=parseInt(a.substr(0,2),16),n=2;a.length-n;n+=2)i=parseInt(a.substr(n,2),16)^r,e+=String.fromCharCode(i);e=document.createTextNode(e),c.parentNode.replaceChild(e,c)}}}catch(u){}}();/* ]]&gt; */&lt;/script&gt;\nFormat settings, CABAC           : Yes\nFormat settings, ReFrames        : 5 frames\nCodec ID                         : avc1\nCodec ID/Info                    : Advanced Video Coding\nDuration                         : 1h 39mn\nBit rate mode                    : Constant\nBit rate                         : 2 500 Kbps / 2 500 Kbps\nWidth                            : 1 280 pixels\nHeight                           : 536 pixels\nDisplay aspect ratio             : 2.35:1\nFrame rate mode                  : Constant\nFrame rate                       : 23.976 fps\nStandard                         : NTSC\nColor space                      : YUV\nChroma subsampling               : 4:2:0\nBit depth                        : 8 bits\nScan type                        : Progressive\nBits/(Pixel*Frame)               : 0.152\nStream size                      : 1.72 GiB (81%)\nWriting library                  : x264 core 112\n\nAudio\nID                               : 1\nFormat                           : AAC\nFormat/Info                      : Advanced Audio Codec\nFormat version                   : Version 4\nFormat profile                   : Main\nCodec ID                         : 40\nDuration                         : 1h 40mn\nBit rate mode                    : Variable\nBit rate                         : 576 Kbps\nMaximum bit rate                 : 1 728 Kbps\nChannel(s)                       : 6 channels\nChannel positions                : Front: L C R, Side: L R, LFE\nSampling rate                    : 48.0 KHz\nStream size                      : 409 MiB (19%)\n                \n\nSYSPNOSIS\nA family looks to prevent evil spirits from trapping their comatose child in a realm called The Further.   \n\n\nRELEASE INFO\n                                    \nChopped Ending Credits\nit works on the ps3\n\n\n\n\n\n\n\n\n\n\n\n","torrent":{"xt":"urn:btih:10a3e75cb0c59124c6b2eec5db161dd17c335bc1","amp;dn":"Insidious+2011+720p+RC+BDRiP+X264+UnKnOwN","amp;tr":["udp%3A%2F%2Ftracker.openbittorrent.com%3A80","udp%3A%2F%2Fopen.demonii.com%3A1337","udp%3A%2F%2Ftracker.coppersurfer.tk%3A6969","udp%3A%2F%2Fexodus.desync.com%3A6969"],"infoHash":"10a3e75cb0c59124c6b2eec5db161dd17c335bc1","infoHashBuffer":{"type":"Buffer","data":[16,163,231,92,176,197,145,36,198,178,238,197,219,22,29,209,124,51,91,193]},"announce":[],"urlList":[]}}